<!-- 
Author : Appsbender <regz24@gmail.com>
Website : www.appsbender.com
-->
<!DOCTYPE svg PUBLIC "-//W3C//DTD SVG 1.1//EN" "http://www.w3.org/Graphics/SVG/1.1/DTD/svg11.dtd">
<svg version="1.1" id="Layer_1" xmlns="http://www.w3.org/2000/svg" xmlns:xlink="http://www.w3.org/1999/xlink" x="0px" y="0px"
	 width="1140px" height="500px" viewBox="0 0 1140 500" enable-background="new 0 0 1140 500" xml:space="preserve">
<g>
	<g>
		<path fill="#414042" d="M354.929,270.261l-34.769-113.862c-0.203-0.61-0.407-0.813-0.61-0.813c-0.204,0-0.204,0.813-0.204,0.813
			s0.813,112.235,0.813,114.065h-25.009V144.606h-10.573v-19.926h47.781l30.905,101.662c0,0,0.204,1.016,0.61,1.016
			c0.204,0,0.61-0.203,0.813-1.016l30.905-101.662h47.781v19.926h-10.573v125.857h-25.009c0-1.83,0.813-114.065,0.813-114.065
			s0-0.813-0.204-0.813c-0.203,0-0.406,0.204-0.61,0.813l-34.768,113.862H354.929z"/>
		<path fill="#414042" d="M451.321,219.11c0-13.88,7.171-54.593,52.742-54.593c3.47,0,35.161,0.463,35.161,32.848
			c0,3.47-0.925,37.243-48.578,37.243c-0.694,0-9.021-0.693-10.641-1.156c-0.231,0-0.463,0.23-0.463,0.463
			c0,0.924,2.545,20.355,33.773,20.355c18.274,0,37.243-7.865,46.728-25.445c0,0,6.477,9.253,9.253,13.186
			c0.694,0.926,0.925,1.388,0.925,1.851c0,7.171-17.812,30.767-58.756,30.767C452.94,274.628,451.321,233.683,451.321,219.11z
			 M500.825,185.336c-15.268,0-23.595,15.037-23.595,27.99c0,0.463,2.544,1.619,10.872,1.619c25.677,0,26.14-15.729,26.14-18.043
			C514.241,185.799,503.6,185.336,500.825,185.336z"/>
		<path fill="#414042" d="M617.408,239.929c0-22.438-55.518-6.477-55.518-43.489c0-2.544,0.694-30.534,45.34-30.534
			c19.199,0,28.221,2.082,28.221,2.082v19.894c0,0-11.104-2.544-27.99-2.544c-5.32,0-20.818,0-20.818,10.41
			c0,17.117,55.98,3.47,55.98,43.257c0,10.41-5.09,35.162-48.115,35.162c-27.528,0-35.393-4.627-35.393-4.627v-41.406h21.975v24.057
			c0,0,4.396,1.852,12.955,1.852C614.863,254.04,617.408,246.405,617.408,239.929z"/>
		<path fill="#414042" d="M709.01,239.929c0-22.438-55.518-6.477-55.518-43.489c0-2.544,0.695-30.534,45.34-30.534
			c19.199,0,28.223,2.082,28.223,2.082v19.894c0,0-11.104-2.544-27.99-2.544c-5.32,0-20.82,0-20.82,10.41
			c0,17.117,55.98,3.47,55.98,43.257c0,10.41-5.09,35.162-48.115,35.162c-27.527,0-35.393-4.627-35.393-4.627v-41.406h21.977v24.057
			c0,0,4.395,1.852,12.953,1.852C706.467,254.04,709.01,246.405,709.01,239.929z"/>
		<path fill="#414042" d="M832.305,262.366c0,20.357-2.775,69.166-64.076,69.166c-13.648,0-21.051-2.775-21.051-2.775v-36.086
			h21.281v17.811h3.701c24.289,0,35.393-14.572,35.623-38.861c-3.238,0.23-6.477,0.463-9.482,0.463
			c-50.66,0-57.139-32.154-57.139-65.927v-37.475h36.781v20.125h-11.797c0,0-0.232,8.559-0.232,24.52
			c0,27.065,12.029,37.013,33.311,37.013c2.545,0,5.32-0.232,8.098-0.463c0.23,0,0.23-9.021,0.23-21.051
			c0-24.058-0.23-60.144-0.23-60.144h24.982V262.366z"/>
	</g>
	<g>
		<path fill="#414042" d="M289.638,317.179v1.752c0,0,0,0.093,0.046,0.093c0.023,0,0.046-0.023,0.092-0.093
			c0.046-0.069,1.314-2.052,4.012-2.052c0.208,0,0.646,0.023,0.784,0.115v4.104h-2.075v-1.613c-0.876,0-1.499,0.553-1.914,1.13
			c-0.738,1.037-0.807,2.489-0.807,2.951v3.758h-2.467v-10.145H289.638z"/>
		<path fill="#414042" d="M295.446,322.205c0-1.384,0.715-5.441,5.257-5.441c0.346,0,3.504,0.046,3.504,3.273
			c0,0.347-0.092,3.713-4.842,3.713c-0.069,0-0.899-0.069-1.061-0.116c-0.023,0-0.046,0.023-0.046,0.047
			c0,0.092,0.254,2.028,3.366,2.028c1.822,0,3.712-0.783,4.658-2.536c0,0,0.646,0.923,0.922,1.314
			c0.069,0.092,0.092,0.139,0.092,0.185c0,0.715-1.775,3.066-5.856,3.066C295.607,327.738,295.446,323.657,295.446,322.205z
			 M300.38,318.839c-1.522,0-2.352,1.498-2.352,2.789c0,0.047,0.254,0.162,1.084,0.162c2.559,0,2.605-1.568,2.605-1.799
			C301.717,318.885,300.656,318.839,300.38,318.839z"/>
		<path fill="#414042" d="M311.996,324.28c0-2.237-5.533-0.646-5.533-4.335c0-0.254,0.069-3.043,4.519-3.043
			c1.914,0,2.813,0.207,2.813,0.207v1.982c0,0-1.106-0.253-2.79-0.253c-0.53,0-2.075,0-2.075,1.037c0,1.706,5.58,0.346,5.58,4.312
			c0,1.038-0.507,3.505-4.795,3.505c-2.744,0-3.528-0.461-3.528-0.461v-4.128h2.19v2.398c0,0,0.438,0.185,1.291,0.185
			C311.743,325.687,311.996,324.926,311.996,324.28z"/>
		<path fill="#414042" d="M318.518,327.093v6.594h-2.467v-14.433h-0.945v-2.075h4.403c2.052,0,5.626,0.53,5.626,4.98
			c0,0.968-0.092,5.349-4.888,5.349C319.164,327.508,318.518,327.093,318.518,327.093z M319.21,319.23c-0.231,0-0.461,0-0.692,0.023
			v5.533c0,0,0.369,0.646,1.614,0.646c1.937,0,2.398-1.821,2.398-3.182C322.53,319.646,320.824,319.23,319.21,319.23z"/>
		<path fill="#414042" d="M330.965,327.692c-3.643,0-5.026-2.767-5.026-5.465c0-2.467,1.406-5.464,5.026-5.464
			c3.712,0,5.026,2.836,5.026,5.464C335.991,324.718,334.585,327.692,330.965,327.692z M330.965,325.617
			c1.868,0,2.421-1.937,2.421-3.39c0-1.429-0.553-3.366-2.421-3.366c-1.891,0-2.444,1.938-2.444,3.366
			C328.521,323.681,329.075,325.617,330.965,325.617z"/>
		<path fill="#414042" d="M343.32,316.948c1.798,0,3.297,0.968,3.297,3.136v3.734c0,0.484,0.185,1.314,1.153,1.314
			c0.576,0,1.36-0.3,1.798-1.614l0.945,1.314c0,0,0.069,0.115,0.069,0.208c0,0.53-1.038,2.559-3.528,2.559
			c-1.798,0-2.882-1.313-2.882-2.836v-3.988c0-1.337-1.176-1.521-1.522-1.521c-1.429,0-2.213,1.245-2.213,2.674
			c0,0.6-0.023,5.396-0.023,5.396h-2.444v-5.902c0,0,0-0.069-0.023-0.069s-0.046,0.023-0.092,0.046
			c-1.291,1.015-3.159,1.292-4.888,1.292c-0.346,0-0.692,0-1.015-0.023v-1.983c0.323,0.023,0.646,0.023,0.945,0.023
			c1.568,0,2.605-0.207,3.366-0.576c1.568-0.784,1.706-2.951,1.706-2.951h2.329v0.968c0,0.047,0,0.069,0.023,0.069
			c0.023,0,0.046-0.022,0.092-0.069C340.415,318.146,341.314,316.948,343.32,316.948z"/>
		<path fill="#414042" d="M355.258,324.28c0-2.237-5.533-0.646-5.533-4.335c0-0.254,0.069-3.043,4.519-3.043
			c1.914,0,2.813,0.207,2.813,0.207v1.982c0,0-1.106-0.253-2.79-0.253c-0.53,0-2.075,0-2.075,1.037c0,1.706,5.58,0.346,5.58,4.312
			c0,1.038-0.507,3.505-4.795,3.505c-2.744,0-3.528-0.461-3.528-0.461v-4.128h2.19v2.398c0,0,0.438,0.185,1.291,0.185
			C355.005,325.687,355.258,324.926,355.258,324.28z"/>
		<path fill="#414042" d="M362.034,323.75c0,0.507,0.162,1.383,1.13,1.383c0.576,0,1.36-0.3,1.798-1.614l0.945,1.314
			c0,0,0.069,0.115,0.069,0.208c0,0.553-1.038,2.559-3.528,2.559c-1.798,0-2.882-1.313-2.882-2.836v-5.51h-0.992v-2.075h3.458
			V323.75z M360.72,315.173c-0.853,0-1.522-0.691-1.522-1.545c0-0.83,0.669-1.521,1.522-1.521c0.83,0,1.521,0.691,1.521,1.521
			C362.241,314.481,361.55,315.173,360.72,315.173z"/>
		<path fill="#414042" d="M365.467,327.484l-1.545-10.306h2.49c0,0,1.176,8.23,1.222,8.23c2.536-0.184,3.366-3.458,3.366-5.764
			v-0.484h-1.176v-1.982h3.689c0,0.622-0.023,1.545-0.023,2.236c0,3.988-2.006,8.162-6.617,8.162
			C365.767,327.577,365.467,327.484,365.467,327.484z"/>
		<path fill="#414042" d="M374.042,322.205c0-1.384,0.715-5.441,5.257-5.441c0.346,0,3.504,0.046,3.504,3.273
			c0,0.347-0.092,3.713-4.842,3.713c-0.069,0-0.899-0.069-1.061-0.116c-0.023,0-0.046,0.023-0.046,0.047
			c0,0.092,0.254,2.028,3.366,2.028c1.822,0,3.712-0.783,4.658-2.536c0,0,0.646,0.923,0.922,1.314
			c0.069,0.092,0.092,0.139,0.092,0.185c0,0.715-1.775,3.066-5.856,3.066C374.203,327.738,374.042,323.657,374.042,322.205z
			 M378.976,318.839c-1.522,0-2.352,1.498-2.352,2.789c0,0.047,0.254,0.162,1.084,0.162c2.559,0,2.605-1.568,2.605-1.799
			C380.313,318.885,379.252,318.839,378.976,318.839z"/>
		<path fill="#414042" d="M392.988,325.133c0.438,0,1.245-0.322,1.522-1.499l0.968,1.338c0,0,0.069,0.115,0.069,0.207
			c0,0.462-1.015,2.398-3.39,2.398c-1.775,0-2.697-1.199-2.697-2.836v-5.487h-0.992v-2.075h0.992v-2.697l2.467-1.476v4.173h1.245
			v2.075h-1.245v4.727C391.927,324.372,391.974,325.133,392.988,325.133z"/>
		<path fill="#414042" d="M394.347,322.205c0-1.384,0.715-5.441,5.257-5.441c0.346,0,3.504,0.046,3.504,3.273
			c0,0.347-0.092,3.713-4.842,3.713c-0.069,0-0.899-0.069-1.061-0.116c-0.023,0-0.046,0.023-0.046,0.047
			c0,0.092,0.254,2.028,3.366,2.028c1.822,0,3.712-0.783,4.658-2.536c0,0,0.646,0.923,0.922,1.314
			c0.069,0.092,0.092,0.139,0.092,0.185c0,0.715-1.775,3.066-5.856,3.066C394.508,327.738,394.347,323.657,394.347,322.205z
			 M399.281,318.839c-1.522,0-2.352,1.498-2.352,2.789c0,0.047,0.254,0.162,1.084,0.162c2.559,0,2.605-1.568,2.605-1.799
			C400.618,318.885,399.557,318.839,399.281,318.839z"/>
		<path fill="#414042" d="M417.353,320.799c0-1.36-1.199-1.545-1.545-1.545c-1.406,0-2.19,1.245-2.19,2.674v5.396h-2.444v-6.524
			c0-1.36-1.107-1.545-1.453-1.545c-1.337,0-2.121,1.245-2.121,2.674v5.396h-2.467v-8.069h-0.969v-2.075h3.436v0.968
			c0,0,0.899-1.198,2.79-1.198c1.153,0,2.237,0.322,2.79,1.406c0,0,0,0.023,0.046,0.023c0.023,0,0.046-0.047,0.046-0.047
			c0.069-0.115,0.876-1.383,3.205-1.383c1.798,0,3.32,0.968,3.32,3.158c0,0-0.023,3.505-0.023,3.712
			c0,0.508,0.208,1.314,1.152,1.314c0.577,0,1.36-0.3,1.799-1.614l0.945,1.314c0,0,0.069,0.115,0.069,0.208
			c0,0.553-1.038,2.559-3.527,2.559c-1.798,0-2.859-1.313-2.859-2.836V320.799z"/>
		<path fill="#414042" d="M425.14,327.093v6.594h-2.467v-14.433h-0.945v-2.075h4.403c2.052,0,5.626,0.53,5.626,4.98
			c0,0.968-0.092,5.349-4.888,5.349C425.786,327.508,425.14,327.093,425.14,327.093z M425.832,319.23c-0.231,0-0.461,0-0.692,0.023
			v5.533c0,0,0.369,0.646,1.614,0.646c1.937,0,2.398-1.821,2.398-3.182C429.152,319.646,427.446,319.23,425.832,319.23z"/>
		<path fill="#414042" d="M432.953,312.867h-0.969v-2.075h3.413c0.023,9.477,0.023,12.935,0.023,13.142c0,0.208,0,1.107,0.922,1.107
			c0.438,0,1.061-0.277,1.337-1.453l0.945,1.291c0,0,0.069,0.139,0.069,0.231c0,0.461-0.899,2.42-3.228,2.42
			c-1.729,0-2.513-1.383-2.513-2.835V312.867z"/>
		<path fill="#414042" d="M446.969,323.772c0,0.484,0.185,1.384,1.13,1.384c0.576,0,1.383-0.323,1.798-1.638l0.945,1.314
			c0,0,0.069,0.115,0.069,0.208c0,0.553-1.038,2.559-3.505,2.559c-1.245,0-2.144-0.646-2.444-1.591
			c-0.023-0.069-0.023-0.092-0.046-0.092s-0.046,0.046-0.069,0.069c-0.646,1.13-1.959,1.775-3.343,1.775
			c-3.597,0-3.942-3.62-3.942-4.75c0-2.951,1.545-6.248,6.294-6.248c1.406,0,3.112,0.415,3.112,0.438V323.772z M444.525,319
			c0,0-0.323-0.139-1.153-0.139c-1.13,0-3.228,0.854-3.228,3.805c0,0.6,0.023,2.628,1.937,2.628c1.568,0,2.444-1.36,2.444-2.536V319
			z"/>
		<path fill="#414042" d="M453.375,325.133c0.438,0,1.245-0.322,1.522-1.499l0.968,1.338c0,0,0.069,0.115,0.069,0.207
			c0,0.462-1.015,2.398-3.39,2.398c-1.775,0-2.697-1.199-2.697-2.836v-5.487h-0.992v-2.075h0.992v-2.697l2.467-1.476v4.173h1.245
			v2.075h-1.245v4.727C452.314,324.372,452.36,325.133,453.375,325.133z"/>
		<path fill="#414042" d="M454.733,322.205c0-1.384,0.715-5.441,5.257-5.441c0.346,0,3.504,0.046,3.504,3.273
			c0,0.347-0.092,3.713-4.842,3.713c-0.069,0-0.899-0.069-1.061-0.116c-0.023,0-0.046,0.023-0.046,0.047
			c0,0.092,0.254,2.028,3.366,2.028c1.822,0,3.712-0.783,4.658-2.536c0,0,0.646,0.923,0.922,1.314
			c0.069,0.092,0.092,0.139,0.092,0.185c0,0.715-1.775,3.066-5.856,3.066C454.895,327.738,454.733,323.657,454.733,322.205z
			 M459.667,318.839c-1.522,0-2.352,1.498-2.352,2.789c0,0.047,0.254,0.162,1.084,0.162c2.559,0,2.605-1.568,2.605-1.799
			C461.004,318.885,459.944,318.839,459.667,318.839z"/>
		<path fill="#414042" d="M470.106,319.208h-1.129v-2.029h1.106c0-2.444,0.023-3.574,0.023-3.643c0-1.36,0.623-2.883,3.39-2.883
			l0.945,2.053h-0.577c-1.176,0-1.383,0.807-1.383,1.176v3.297h3.274v2.029h-1.637c-0.807,0-1.544,0-1.591,0.022
			c0.231,0.093,4.104,1.476,4.104,6.963c0,6.617-6.525,7.932-6.525,7.932V319.208z M472.481,330.644c0,0,2.052-0.83,2.052-4.427
			c0-3.735-2.052-4.704-2.052-4.704V330.644z"/>
		<path fill="#414042" d="M482.232,327.692c-3.643,0-5.026-2.767-5.026-5.465c0-2.467,1.406-5.464,5.026-5.464
			c3.712,0,5.026,2.836,5.026,5.464C487.258,324.718,485.852,327.692,482.232,327.692z M482.232,325.617
			c1.868,0,2.421-1.937,2.421-3.39c0-1.429-0.553-3.366-2.421-3.366c-1.891,0-2.444,1.938-2.444,3.366
			C479.788,323.681,480.341,325.617,482.232,325.617z"/>
		<path fill="#414042" d="M491.542,317.179v1.752c0,0,0,0.093,0.046,0.093c0.023,0,0.046-0.023,0.092-0.093
			c0.046-0.069,1.314-2.052,4.012-2.052c0.208,0,0.646,0.023,0.784,0.115v4.104h-2.075v-1.613c-0.876,0-1.499,0.553-1.914,1.13
			c-0.738,1.037-0.807,2.489-0.807,2.951v3.758h-2.467v-5.833c0-0.023,0-0.093-0.023-0.093c-0.023,0-0.046,0.023-0.069,0.047
			c-1.083,0.991-3.159,1.313-4.911,1.313c-0.346,0-0.691-0.022-0.991-0.046v-1.96c0.346,0.023,0.692,0.023,0.991,0.023
			c1.545,0,2.56-0.185,3.297-0.6c1.683-0.945,1.706-2.997,1.706-2.997H491.542z"/>
		<path fill="#414042" d="M502.006,319.161c0-2.421,1.775-8.691,10.053-8.691c0.553,0,1.383,0.092,1.383,0.092v5.188h-2.306v-2.79
			c-2.583,0-6.156,1.729-6.156,6.226c0,0.991,0,6.202,5.995,6.202c1.383,0,2.928-0.554,2.928-0.554v2.467
			c0,0-1.291,0.462-3.136,0.462C502.836,327.762,502.006,322.159,502.006,319.161z"/>
		<path fill="#414042" d="M517.38,317.179v1.752c0,0,0,0.093,0.046,0.093c0.023,0,0.046-0.023,0.092-0.093
			c0.046-0.069,1.314-2.052,4.012-2.052c0.208,0,0.646,0.023,0.784,0.115v4.104h-2.075v-1.613c-0.876,0-1.499,0.553-1.914,1.13
			c-0.738,1.037-0.807,2.489-0.807,2.951v3.758h-2.467v-10.145H517.38z"/>
		<path fill="#414042" d="M528.145,327.692c-3.643,0-5.026-2.767-5.026-5.465c0-2.467,1.406-5.464,5.026-5.464
			c3.712,0,5.026,2.836,5.026,5.464C533.17,324.718,531.764,327.692,528.145,327.692z M528.145,325.617
			c1.867,0,2.421-1.937,2.421-3.39c0-1.429-0.554-3.366-2.421-3.366c-1.891,0-2.444,1.938-2.444,3.366
			C525.701,323.681,526.254,325.617,528.145,325.617z"/>
		<path fill="#414042" d="M539,327.692c-3.643,0-5.026-2.767-5.026-5.465c0-2.467,1.406-5.464,5.026-5.464
			c3.712,0,5.026,2.836,5.026,5.464C544.026,324.718,542.62,327.692,539,327.692z M539,325.617c1.868,0,2.421-1.937,2.421-3.39
			c0-1.429-0.553-3.366-2.421-3.366c-1.891,0-2.444,1.938-2.444,3.366C536.557,323.681,537.11,325.617,539,325.617z"/>
		<path fill="#414042" d="M545.752,330.09h2.121v1.729c0,0,0.323,0.022,0.507,0.022c3.205,0,3.435-2.789,3.435-4.127v-1.198
			c0-0.093-0.023-0.115-0.046-0.115c-0.046,0-0.115,0.092-0.115,0.092c-0.784,0.854-1.821,1.13-2.928,1.13
			c-3.597,0-3.804-3.989-3.804-4.565c0-3.136,1.521-6.271,6.225-6.271c1.406,0,3.066,0.392,3.066,0.438v9.938
			c0,1.43,0,6.778-6.456,6.778c-1.314,0-2.006-0.23-2.006-0.23V330.09z M551.815,319c0,0-0.323-0.139-1.153-0.139
			c-1.199,0-3.182,0.854-3.182,3.781c0,0.577,0.046,2.629,1.96,2.629c1.544,0,2.375-1.406,2.375-2.56V319z"/>
		<path fill="#414042" d="M560.504,327.692c-3.643,0-5.026-2.767-5.026-5.465c0-2.467,1.406-5.464,5.026-5.464
			c3.712,0,5.026,2.836,5.026,5.464C565.53,324.718,564.124,327.692,560.504,327.692z M560.504,325.617
			c1.868,0,2.421-1.937,2.421-3.39c0-1.429-0.553-3.366-2.421-3.366c-1.891,0-2.444,1.938-2.444,3.366
			C558.061,323.681,558.614,325.617,560.504,325.617z"/>
		<path fill="#414042" d="M571.635,327.3c0-9.084,8-7.724,8-12.242c0-2.052-1.637-2.375-3.619-2.375
			c-0.668,0-1.475,0.069-1.475,0.069v1.937h-2.215v-3.966c0,0,1.43-0.185,3.275-0.185c2.904,0,6.639,0.208,6.639,4.358
			c0,2.352-0.621,3.319-2.512,4.772c-2.191,1.683-5.051,2.628-5.051,5.533h7.24v2.121h-10.283V327.3z"/>
		<path fill="#414042" d="M592.334,324.257v-4.242h-4.219v-1.591h4.219v-4.22h1.613v4.22h4.221v1.591h-4.221v4.242H592.334z"/>
		<path fill="#414042" d="M605.311,328.66v-19.183h1.43v19.183H605.311z"/>
		<path fill="#414042" d="M613.467,312.867H612.5v-2.075h3.412v6.271c0,0,0.852-0.254,1.475-0.254c0.83,0,5.373,0.115,5.373,5.326
			c0,0.991-0.369,5.533-5.834,5.533c-2.514,0-3.459-0.646-3.459-0.646V312.867z M615.912,319.092v6.226c0,0,0.529,0.207,1.105,0.207
			s3.182-0.092,3.182-3.481c0-2.997-2.512-3.112-2.996-3.112S615.912,319.092,615.912,319.092z"/>
		<path fill="#414042" d="M632.877,326.517c0,2.028-0.275,6.894-6.387,6.894c-1.359,0-2.098-0.276-2.098-0.276v-3.598h2.121v1.775
			h0.369c2.422,0,3.527-1.452,3.551-3.873c-0.322,0.023-0.646,0.046-0.945,0.046c-5.049,0-5.695-3.204-5.695-6.57v-3.735h3.666
			v2.006h-1.176c0,0-0.023,0.853-0.023,2.443c0,2.698,1.199,3.689,3.32,3.689c0.254,0,0.531-0.023,0.807-0.046
			c0.023,0,0.023-0.899,0.023-2.099c0-2.397-0.023-5.994-0.023-5.994h2.49V326.517z"/>
		<path fill="#414042" d="M648.25,323.772c0,0.484,0.186,1.384,1.131,1.384c0.576,0,1.383-0.323,1.797-1.638l0.945,1.314
			c0,0,0.07,0.115,0.07,0.208c0,0.553-1.037,2.559-3.504,2.559c-1.246,0-2.145-0.646-2.445-1.591
			c-0.023-0.069-0.023-0.092-0.045-0.092c-0.023,0-0.047,0.046-0.07,0.069c-0.645,1.13-1.959,1.775-3.342,1.775
			c-3.598,0-3.943-3.62-3.943-4.75c0-2.951,1.545-6.248,6.295-6.248c1.406,0,3.111,0.415,3.111,0.438V323.772z M645.807,319
			c0,0-0.322-0.139-1.152-0.139c-1.131,0-3.229,0.854-3.229,3.805c0,0.6,0.023,2.628,1.938,2.628c1.566,0,2.443-1.36,2.443-2.536
			V319z"/>
		<path fill="#414042" d="M653.574,327.093v6.594h-2.469v-14.433h-0.945v-2.075h4.404c2.053,0,5.625,0.53,5.625,4.98
			c0,0.968-0.092,5.349-4.887,5.349C654.219,327.508,653.574,327.093,653.574,327.093z M654.266,319.23c-0.23,0-0.461,0-0.691,0.023
			v5.533c0,0,0.367,0.646,1.613,0.646c1.936,0,2.398-1.821,2.398-3.182C657.586,319.646,655.879,319.23,654.266,319.23z"/>
		<path fill="#414042" d="M662.146,321.467c0-0.022,0-0.069-0.023-0.069s-0.045,0-0.068,0.023c0,0-0.738,0.691-2.098,0.991
			c-0.693,0.161-1.615,0.323-2.836,0.323c-0.301,0-0.623,0-0.969-0.023v-1.982c0.299,0.022,0.6,0.022,0.875,0.022
			c1.615,0,2.676-0.23,3.436-0.6c1.568-0.783,1.707-2.974,1.707-2.974h3.389c2.168,0,5.672,0.53,5.672,4.98
			c0,0.968-0.068,5.349-4.889,5.349c-0.945,0-1.729-0.323-1.729-0.323v6.502h-2.467V321.467z M668.625,322.251
			c0-2.099-1.061-3.021-3.344-3.021c-0.23,0-0.461,0.023-0.668,0.023v5.557c0,0,0.508,0.622,1.613,0.622
			C668.164,325.433,668.625,323.657,668.625,322.251z"/>
		<path fill="#414042" d="M674.408,319.945c-0.047-0.023-0.139-0.069-0.184-0.069c0,0-0.047,0-0.094,0.069
			c0,0-1.752,2.744-5.994,2.744c-0.529,0-0.553-0.023-0.922-0.047v-1.96h1.014c4.936,0,5.766-5.118,5.766-5.118h2.236
			c0,0-0.162,1.038-0.738,2.19c0,0,2.697,1.591,2.697,4.818c0,0.923-0.461,5.026-4.889,5.026c-1.176,0-1.682-0.276-1.682-0.276
			v-2.029c0,0,0.553,0.277,1.451,0.277c1.016,0,2.652-0.6,2.652-2.929C675.723,320.775,674.754,320.106,674.408,319.945z"/>
		<path fill="#414042" d="M679.502,312.867h-0.969v-2.075h3.412v6.271c0,0,0.854-0.254,1.477-0.254c0.83,0,5.371,0.115,5.371,5.326
			c0,0.991-0.369,5.533-5.832,5.533c-2.514,0-3.459-0.646-3.459-0.646V312.867z M681.945,319.092v6.226c0,0,0.531,0.207,1.107,0.207
			s3.182-0.092,3.182-3.481c0-2.997-2.514-3.112-2.998-3.112S681.945,319.092,681.945,319.092z"/>
		<path fill="#414042" d="M689.896,322.205c0-1.384,0.715-5.441,5.256-5.441c0.346,0,3.504,0.046,3.504,3.273
			c0,0.347-0.092,3.713-4.842,3.713c-0.068,0-0.898-0.069-1.061-0.116c-0.021,0-0.045,0.023-0.045,0.047
			c0,0.092,0.254,2.028,3.365,2.028c1.822,0,3.713-0.783,4.658-2.536c0,0,0.645,0.923,0.922,1.314
			c0.068,0.092,0.092,0.139,0.092,0.185c0,0.715-1.775,3.066-5.855,3.066C690.057,327.738,689.896,323.657,689.896,322.205z
			 M694.83,318.839c-1.521,0-2.352,1.498-2.352,2.789c0,0.047,0.254,0.162,1.084,0.162c2.559,0,2.605-1.568,2.605-1.799
			C696.168,318.885,695.107,318.839,694.83,318.839z"/>
		<path fill="#414042" d="M709.375,324.026c0,0.185,0.023,1.084,0.922,1.084c0.438,0,1.061-0.254,1.338-1.43l0.945,1.291
			c0,0,0.068,0.115,0.068,0.207c0,0.484-0.898,2.444-3.229,2.444c-1.729,0-2.49-1.406-2.49-2.836v-3.988
			c0-1.36-1.197-1.545-1.521-1.545c-1.43,0-2.213,1.245-2.213,2.674v5.396h-2.467v-8.069h-1.107v-2.075h3.436v0.968
			c0,0.023,0,0.069,0.023,0.069s0.047-0.022,0.092-0.092c0,0,0.9-1.176,2.906-1.176c1.82,0,3.297,0.991,3.297,3.158V324.026z"/>
		<path fill="#414042" d="M721.844,325.11c0.439,0,1.039-0.323,1.314-1.499l0.969,1.291c0,0,0.047,0.115,0.047,0.208
			c0,0.461-0.854,2.489-3.182,2.489c-1.73,0-2.053-1.591-2.053-1.591c-0.023-0.069-0.047-0.069-0.068-0.069
			c-0.023,0-0.047,0.023-0.07,0.047c-0.645,1.13-1.867,1.706-3.25,1.706c-3.598,0-4.035-3.505-4.035-4.681
			c0-2.951,1.545-6.248,6.295-6.248c0.207,0,0.438,0.023,0.668,0.023v-3.92h-0.969v-2.075h3.412v13.165
			C720.922,324.165,720.945,325.11,721.844,325.11z M718.479,319c0,0-0.322-0.139-1.152-0.139c-1.131,0-3.229,0.854-3.229,3.805
			c0,0.6,0.023,2.605,1.938,2.605c1.566,0,2.443-1.338,2.443-2.514V319z"/>
		<path fill="#414042" d="M722.994,322.205c0-1.384,0.715-5.441,5.256-5.441c0.346,0,3.504,0.046,3.504,3.273
			c0,0.347-0.092,3.713-4.842,3.713c-0.068,0-0.898-0.069-1.061-0.116c-0.021,0-0.045,0.023-0.045,0.047
			c0,0.092,0.254,2.028,3.365,2.028c1.822,0,3.713-0.783,4.658-2.536c0,0,0.645,0.923,0.922,1.314
			c0.068,0.092,0.092,0.139,0.092,0.185c0,0.715-1.775,3.066-5.855,3.066C723.154,327.738,722.994,323.657,722.994,322.205z
			 M727.928,318.839c-1.521,0-2.352,1.498-2.352,2.789c0,0.047,0.254,0.162,1.084,0.162c2.559,0,2.605-1.568,2.605-1.799
			C729.266,318.885,728.205,318.839,727.928,318.839z"/>
		<path fill="#414042" d="M736.063,317.179v1.752c0,0,0,0.093,0.047,0.093c0.021,0,0.045-0.023,0.092-0.093s1.314-2.052,4.012-2.052
			c0.207,0,0.645,0.023,0.783,0.115v4.104h-2.074v-1.613c-0.877,0-1.498,0.553-1.914,1.13c-0.738,1.037-0.807,2.489-0.807,2.951
			v3.758h-2.467v-10.145H736.063z"/>
	</g>
	<rect x="284.579" y="292.833" fill="#414042" width="465.96" height="9.75"/>
</g>
<g>
	<g>
		<path fill="#FFFFFF" d="M357.893,266.557l-34.769-113.862c-0.203-0.61-0.407-0.813-0.61-0.813c-0.204,0-0.204,0.813-0.204,0.813
			s0.813,112.235,0.813,114.065h-25.009V140.902h-10.573v-19.926h47.781l30.905,101.662c0,0,0.204,1.016,0.61,1.016
			c0.204,0,0.61-0.203,0.813-1.016l30.905-101.662h47.781v19.926h-10.573V266.76h-25.009c0-1.83,0.813-114.065,0.813-114.065
			s0-0.813-0.204-0.813c-0.203,0-0.406,0.204-0.61,0.813l-34.768,113.862H357.893z"/>
		<path fill="#FFFFFF" d="M454.285,215.406c0-13.88,7.171-54.593,52.742-54.593c3.47,0,35.161,0.463,35.161,32.848
			c0,3.47-0.925,37.243-48.578,37.243c-0.694,0-9.021-0.693-10.641-1.156c-0.231,0-0.463,0.23-0.463,0.463
			c0,0.924,2.545,20.355,33.773,20.355c18.274,0,37.243-7.865,46.728-25.445c0,0,6.477,9.253,9.253,13.186
			c0.693,0.926,0.925,1.388,0.925,1.851c0,7.171-17.812,30.767-58.756,30.767C455.904,270.924,454.285,229.979,454.285,215.406z
			 M503.788,181.632c-15.268,0-23.595,15.036-23.595,27.99c0,0.462,2.544,1.619,10.872,1.619c25.677,0,26.14-15.73,26.14-18.043
			C517.205,182.095,506.563,181.632,503.788,181.632z"/>
		<path fill="#FFFFFF" d="M620.371,236.225c0-22.438-55.518-6.477-55.518-43.489c0-2.544,0.694-30.535,45.34-30.535
			c19.199,0,28.221,2.082,28.221,2.082v19.894c0,0-11.104-2.544-27.99-2.544c-5.32,0-20.818,0-20.818,10.41
			c0,17.118,55.98,3.47,55.98,43.257c0,10.41-5.09,35.162-48.115,35.162c-27.528,0-35.393-4.627-35.393-4.627v-41.406h21.976v24.057
			c0,0,4.396,1.852,12.954,1.852C617.827,250.336,620.371,242.701,620.371,236.225z"/>
		<path fill="#FFFFFF" d="M711.974,236.225c0-22.438-55.518-6.477-55.518-43.489c0-2.544,0.694-30.535,45.34-30.535
			c19.199,0,28.222,2.082,28.222,2.082v19.894c0,0-11.104-2.544-27.99-2.544c-5.32,0-20.819,0-20.819,10.41
			c0,17.118,55.98,3.47,55.98,43.257c0,10.41-5.09,35.162-48.115,35.162c-27.528,0-35.393-4.627-35.393-4.627v-41.406h21.976v24.057
			c0,0,4.395,1.852,12.954,1.852C709.43,250.336,711.974,242.701,711.974,236.225z"/>
		<path fill="#FFFFFF" d="M835.268,258.662c0,20.357-2.775,69.166-64.076,69.166c-13.648,0-21.051-2.775-21.051-2.775v-36.086
			h21.282v17.811h3.701c24.288,0,35.392-14.572,35.623-38.861c-3.238,0.23-6.477,0.463-9.483,0.463
			c-50.66,0-57.138-32.154-57.138-65.927v-37.475h36.78v20.125h-11.797c0,0-0.231,8.559-0.231,24.521
			c0,27.065,12.028,37.012,33.311,37.012c2.545,0,5.32-0.232,8.097-0.463c0.23,0,0.23-9.021,0.23-21.051
			c0-24.058-0.23-60.144-0.23-60.144h24.982V258.662z"/>
	</g>
	<g>
		<path fill="#F1F2F2" d="M292.602,313.475v1.752c0,0,0,0.093,0.046,0.093c0.023,0,0.046-0.023,0.092-0.093
			c0.046-0.069,1.314-2.052,4.012-2.052c0.208,0,0.646,0.023,0.784,0.115v4.104h-2.075v-1.613c-0.876,0-1.499,0.553-1.914,1.13
			c-0.738,1.037-0.807,2.489-0.807,2.951v3.758h-2.467v-10.145H292.602z"/>
		<path fill="#F1F2F2" d="M298.409,318.501c0-1.384,0.715-5.441,5.257-5.441c0.346,0,3.504,0.046,3.504,3.273
			c0,0.347-0.092,3.713-4.842,3.713c-0.069,0-0.899-0.069-1.061-0.116c-0.023,0-0.046,0.023-0.046,0.047
			c0,0.092,0.254,2.028,3.366,2.028c1.822,0,3.712-0.783,4.658-2.536c0,0,0.646,0.923,0.922,1.314
			c0.069,0.092,0.092,0.139,0.092,0.185c0,0.715-1.775,3.066-5.856,3.066C298.57,324.034,298.409,319.953,298.409,318.501z
			 M303.343,315.135c-1.522,0-2.352,1.498-2.352,2.789c0,0.047,0.254,0.162,1.084,0.162c2.559,0,2.605-1.568,2.605-1.799
			C304.68,315.181,303.62,315.135,303.343,315.135z"/>
		<path fill="#F1F2F2" d="M314.959,320.576c0-2.237-5.533-0.646-5.533-4.335c0-0.254,0.069-3.043,4.519-3.043
			c1.914,0,2.813,0.207,2.813,0.207v1.982c0,0-1.106-0.253-2.79-0.253c-0.53,0-2.075,0-2.075,1.037c0,1.706,5.58,0.346,5.58,4.312
			c0,1.038-0.507,3.505-4.795,3.505c-2.744,0-3.528-0.461-3.528-0.461v-4.128h2.19v2.398c0,0,0.438,0.185,1.291,0.185
			C314.706,321.982,314.959,321.222,314.959,320.576z"/>
		<path fill="#F1F2F2" d="M321.481,323.389v6.594h-2.467V315.55h-0.945v-2.075h4.403c2.052,0,5.626,0.53,5.626,4.98
			c0,0.968-0.092,5.349-4.888,5.349C322.127,323.804,321.481,323.389,321.481,323.389z M322.173,315.526
			c-0.231,0-0.461,0-0.692,0.023v5.533c0,0,0.369,0.646,1.614,0.646c1.937,0,2.398-1.821,2.398-3.182
			C325.493,315.941,323.787,315.526,322.173,315.526z"/>
		<path fill="#F1F2F2" d="M333.929,323.988c-3.643,0-5.026-2.767-5.026-5.465c0-2.467,1.406-5.464,5.026-5.464
			c3.712,0,5.026,2.836,5.026,5.464C338.955,321.014,337.548,323.988,333.929,323.988z M333.929,321.913
			c1.868,0,2.421-1.937,2.421-3.39c0-1.429-0.553-3.366-2.421-3.366c-1.891,0-2.444,1.938-2.444,3.366
			C331.485,319.977,332.038,321.913,333.929,321.913z"/>
		<path fill="#F1F2F2" d="M346.283,313.244c1.798,0,3.297,0.968,3.297,3.136v3.734c0,0.484,0.185,1.314,1.153,1.314
			c0.576,0,1.36-0.3,1.798-1.614l0.945,1.314c0,0,0.069,0.115,0.069,0.208c0,0.53-1.038,2.559-3.528,2.559
			c-1.798,0-2.882-1.313-2.882-2.836v-3.988c0-1.337-1.176-1.521-1.522-1.521c-1.429,0-2.213,1.245-2.213,2.674
			c0,0.6-0.023,5.396-0.023,5.396h-2.444v-5.902c0,0,0-0.069-0.023-0.069s-0.046,0.023-0.092,0.046
			c-1.291,1.015-3.159,1.292-4.888,1.292c-0.346,0-0.692,0-1.015-0.023v-1.983c0.323,0.023,0.646,0.023,0.945,0.023
			c1.568,0,2.605-0.207,3.366-0.576c1.568-0.784,1.706-2.951,1.706-2.951h2.329v0.968c0,0.047,0,0.069,0.023,0.069
			c0.023,0,0.046-0.022,0.092-0.069C343.378,314.442,344.277,313.244,346.283,313.244z"/>
		<path fill="#F1F2F2" d="M358.222,320.576c0-2.237-5.533-0.646-5.533-4.335c0-0.254,0.069-3.043,4.519-3.043
			c1.914,0,2.813,0.207,2.813,0.207v1.982c0,0-1.106-0.253-2.79-0.253c-0.53,0-2.075,0-2.075,1.037c0,1.706,5.58,0.346,5.58,4.312
			c0,1.038-0.507,3.505-4.795,3.505c-2.744,0-3.528-0.461-3.528-0.461v-4.128h2.19v2.398c0,0,0.438,0.185,1.291,0.185
			C357.968,321.982,358.222,321.222,358.222,320.576z"/>
		<path fill="#F1F2F2" d="M364.997,320.046c0,0.507,0.162,1.383,1.13,1.383c0.576,0,1.36-0.3,1.798-1.614l0.945,1.314
			c0,0,0.069,0.115,0.069,0.208c0,0.553-1.038,2.559-3.528,2.559c-1.798,0-2.882-1.313-2.882-2.836v-5.51h-0.992v-2.075h3.458
			V320.046z M363.683,311.469c-0.853,0-1.522-0.691-1.522-1.545c0-0.83,0.669-1.521,1.522-1.521c0.83,0,1.521,0.691,1.521,1.521
			C365.205,310.777,364.513,311.469,363.683,311.469z"/>
		<path fill="#F1F2F2" d="M368.431,323.78l-1.545-10.306h2.49c0,0,1.176,8.23,1.222,8.23c2.536-0.184,3.366-3.458,3.366-5.764
			v-0.484h-1.176v-1.982h3.689c0,0.622-0.023,1.545-0.023,2.236c0,3.988-2.006,8.162-6.617,8.162
			C368.73,323.873,368.431,323.78,368.431,323.78z"/>
		<path fill="#F1F2F2" d="M377.005,318.501c0-1.384,0.715-5.441,5.257-5.441c0.346,0,3.504,0.046,3.504,3.273
			c0,0.347-0.092,3.713-4.842,3.713c-0.069,0-0.899-0.069-1.061-0.116c-0.023,0-0.046,0.023-0.046,0.047
			c0,0.092,0.254,2.028,3.366,2.028c1.822,0,3.712-0.783,4.658-2.536c0,0,0.646,0.923,0.922,1.314
			c0.069,0.092,0.092,0.139,0.092,0.185c0,0.715-1.775,3.066-5.856,3.066C377.166,324.034,377.005,319.953,377.005,318.501z
			 M381.939,315.135c-1.522,0-2.352,1.498-2.352,2.789c0,0.047,0.254,0.162,1.084,0.162c2.559,0,2.605-1.568,2.605-1.799
			C383.276,315.181,382.215,315.135,381.939,315.135z"/>
		<path fill="#F1F2F2" d="M395.951,321.429c0.438,0,1.245-0.322,1.522-1.499l0.968,1.338c0,0,0.069,0.115,0.069,0.207
			c0,0.462-1.015,2.398-3.39,2.398c-1.775,0-2.697-1.199-2.697-2.836v-5.487h-0.992v-2.075h0.992v-2.697l2.467-1.476v4.173h1.245
			v2.075h-1.245v4.727C394.891,320.668,394.937,321.429,395.951,321.429z"/>
		<path fill="#F1F2F2" d="M397.31,318.501c0-1.384,0.715-5.441,5.257-5.441c0.346,0,3.504,0.046,3.504,3.273
			c0,0.347-0.092,3.713-4.842,3.713c-0.069,0-0.899-0.069-1.061-0.116c-0.023,0-0.046,0.023-0.046,0.047
			c0,0.092,0.254,2.028,3.366,2.028c1.822,0,3.712-0.783,4.658-2.536c0,0,0.646,0.923,0.922,1.314
			c0.069,0.092,0.092,0.139,0.092,0.185c0,0.715-1.775,3.066-5.856,3.066C397.471,324.034,397.31,319.953,397.31,318.501z
			 M402.244,315.135c-1.522,0-2.352,1.498-2.352,2.789c0,0.047,0.254,0.162,1.084,0.162c2.559,0,2.605-1.568,2.605-1.799
			C403.581,315.181,402.521,315.135,402.244,315.135z"/>
		<path fill="#F1F2F2" d="M420.316,317.095c0-1.36-1.199-1.545-1.545-1.545c-1.406,0-2.19,1.245-2.19,2.674v5.396h-2.444v-6.524
			c0-1.36-1.107-1.545-1.453-1.545c-1.337,0-2.121,1.245-2.121,2.674v5.396h-2.467v-8.069h-0.969v-2.075h3.436v0.968
			c0,0,0.899-1.198,2.79-1.198c1.153,0,2.237,0.322,2.79,1.406c0,0,0,0.023,0.046,0.023c0.023,0,0.046-0.047,0.046-0.047
			c0.069-0.115,0.876-1.383,3.205-1.383c1.798,0,3.32,0.968,3.32,3.158c0,0-0.023,3.505-0.023,3.712
			c0,0.508,0.208,1.314,1.152,1.314c0.577,0,1.36-0.3,1.799-1.614l0.945,1.314c0,0,0.069,0.115,0.069,0.208
			c0,0.553-1.038,2.559-3.527,2.559c-1.798,0-2.859-1.313-2.859-2.836V317.095z"/>
		<path fill="#F1F2F2" d="M428.104,323.389v6.594h-2.467V315.55h-0.945v-2.075h4.403c2.052,0,5.626,0.53,5.626,4.98
			c0,0.968-0.092,5.349-4.888,5.349C428.749,323.804,428.104,323.389,428.104,323.389z M428.795,315.526
			c-0.231,0-0.461,0-0.692,0.023v5.533c0,0,0.369,0.646,1.614,0.646c1.937,0,2.398-1.821,2.398-3.182
			C432.115,315.941,430.409,315.526,428.795,315.526z"/>
		<path fill="#F1F2F2" d="M435.917,309.163h-0.969v-2.075h3.413c0.023,9.477,0.023,12.935,0.023,13.142c0,0.208,0,1.107,0.922,1.107
			c0.438,0,1.061-0.277,1.337-1.453l0.945,1.291c0,0,0.069,0.139,0.069,0.231c0,0.461-0.899,2.42-3.228,2.42
			c-1.729,0-2.513-1.383-2.513-2.835V309.163z"/>
		<path fill="#F1F2F2" d="M449.933,320.068c0,0.484,0.185,1.384,1.13,1.384c0.576,0,1.383-0.323,1.798-1.638l0.945,1.314
			c0,0,0.069,0.115,0.069,0.208c0,0.553-1.038,2.559-3.505,2.559c-1.245,0-2.144-0.646-2.444-1.591
			c-0.023-0.069-0.023-0.092-0.046-0.092s-0.046,0.046-0.069,0.069c-0.646,1.13-1.959,1.775-3.343,1.775
			c-3.597,0-3.942-3.62-3.942-4.75c0-2.951,1.545-6.248,6.294-6.248c1.406,0,3.112,0.415,3.112,0.438V320.068z M447.489,315.296
			c0,0-0.323-0.139-1.153-0.139c-1.13,0-3.228,0.854-3.228,3.805c0,0.6,0.023,2.628,1.937,2.628c1.568,0,2.444-1.36,2.444-2.536
			V315.296z"/>
		<path fill="#F1F2F2" d="M456.338,321.429c0.438,0,1.245-0.322,1.522-1.499l0.968,1.338c0,0,0.069,0.115,0.069,0.207
			c0,0.462-1.015,2.398-3.39,2.398c-1.775,0-2.697-1.199-2.697-2.836v-5.487h-0.992v-2.075h0.992v-2.697l2.467-1.476v4.173h1.245
			v2.075h-1.245v4.727C455.277,320.668,455.324,321.429,456.338,321.429z"/>
		<path fill="#F1F2F2" d="M457.697,318.501c0-1.384,0.715-5.441,5.257-5.441c0.346,0,3.504,0.046,3.504,3.273
			c0,0.347-0.092,3.713-4.842,3.713c-0.069,0-0.899-0.069-1.061-0.116c-0.023,0-0.046,0.023-0.046,0.047
			c0,0.092,0.254,2.028,3.366,2.028c1.822,0,3.712-0.783,4.658-2.536c0,0,0.646,0.923,0.922,1.314
			c0.069,0.092,0.092,0.139,0.092,0.185c0,0.715-1.775,3.066-5.856,3.066C457.858,324.034,457.697,319.953,457.697,318.501z
			 M462.631,315.135c-1.522,0-2.352,1.498-2.352,2.789c0,0.047,0.254,0.162,1.084,0.162c2.559,0,2.605-1.568,2.605-1.799
			C463.968,315.181,462.907,315.135,462.631,315.135z"/>
		<path fill="#F1F2F2" d="M473.07,315.504h-1.129v-2.029h1.106c0-2.444,0.023-3.574,0.023-3.643c0-1.36,0.623-2.883,3.39-2.883
			l0.945,2.053h-0.577c-1.176,0-1.383,0.807-1.383,1.176v3.297h3.274v2.029h-1.637c-0.807,0-1.544,0-1.591,0.022
			c0.231,0.093,4.104,1.476,4.104,6.963c0,6.617-6.525,7.932-6.525,7.932V315.504z M475.445,326.939c0,0,2.052-0.83,2.052-4.427
			c0-3.735-2.052-4.704-2.052-4.704V326.939z"/>
		<path fill="#F1F2F2" d="M485.195,323.988c-3.643,0-5.026-2.767-5.026-5.465c0-2.467,1.406-5.464,5.026-5.464
			c3.712,0,5.026,2.836,5.026,5.464C490.221,321.014,488.815,323.988,485.195,323.988z M485.195,321.913
			c1.868,0,2.421-1.937,2.421-3.39c0-1.429-0.553-3.366-2.421-3.366c-1.891,0-2.444,1.938-2.444,3.366
			C482.751,319.977,483.305,321.913,485.195,321.913z"/>
		<path fill="#F1F2F2" d="M494.506,313.475v1.752c0,0,0,0.093,0.046,0.093c0.023,0,0.046-0.023,0.092-0.093
			c0.046-0.069,1.314-2.052,4.012-2.052c0.208,0,0.646,0.023,0.784,0.115v4.104h-2.075v-1.613c-0.876,0-1.499,0.553-1.914,1.13
			c-0.738,1.037-0.807,2.489-0.807,2.951v3.758h-2.467v-5.833c0-0.023,0-0.093-0.023-0.093c-0.023,0-0.046,0.023-0.069,0.047
			c-1.083,0.991-3.159,1.313-4.911,1.313c-0.346,0-0.691-0.022-0.991-0.046v-1.96c0.346,0.023,0.692,0.023,0.991,0.023
			c1.545,0,2.56-0.185,3.297-0.6c1.683-0.945,1.706-2.997,1.706-2.997H494.506z"/>
		<path fill="#F1F2F2" d="M504.969,315.457c0-2.421,1.775-8.691,10.053-8.691c0.553,0,1.383,0.092,1.383,0.092v5.188H514.1v-2.79
			c-2.583,0-6.156,1.729-6.156,6.226c0,0.991,0,6.202,5.995,6.202c1.383,0,2.928-0.554,2.928-0.554v2.467
			c0,0-1.291,0.462-3.136,0.462C505.799,324.058,504.969,318.455,504.969,315.457z"/>
		<path fill="#F1F2F2" d="M520.343,313.475v1.752c0,0,0,0.093,0.046,0.093c0.023,0,0.046-0.023,0.092-0.093
			c0.046-0.069,1.314-2.052,4.012-2.052c0.208,0,0.646,0.023,0.784,0.115v4.104h-2.075v-1.613c-0.876,0-1.499,0.553-1.914,1.13
			c-0.738,1.037-0.807,2.489-0.807,2.951v3.758h-2.467v-10.145H520.343z"/>
		<path fill="#F1F2F2" d="M531.108,323.988c-3.643,0-5.026-2.767-5.026-5.465c0-2.467,1.406-5.464,5.026-5.464
			c3.712,0,5.026,2.836,5.026,5.464C536.134,321.014,534.728,323.988,531.108,323.988z M531.108,321.913
			c1.867,0,2.421-1.937,2.421-3.39c0-1.429-0.554-3.366-2.421-3.366c-1.891,0-2.444,1.938-2.444,3.366
			C528.664,319.977,529.217,321.913,531.108,321.913z"/>
		<path fill="#F1F2F2" d="M541.964,323.988c-3.643,0-5.026-2.767-5.026-5.465c0-2.467,1.406-5.464,5.026-5.464
			c3.712,0,5.026,2.836,5.026,5.464C546.99,321.014,545.583,323.988,541.964,323.988z M541.964,321.913
			c1.868,0,2.421-1.937,2.421-3.39c0-1.429-0.553-3.366-2.421-3.366c-1.891,0-2.444,1.938-2.444,3.366
			C539.52,319.977,540.073,321.913,541.964,321.913z"/>
		<path fill="#F1F2F2" d="M548.715,326.386h2.121v1.729c0,0,0.323,0.022,0.507,0.022c3.205,0,3.435-2.789,3.435-4.127v-1.198
			c0-0.093-0.023-0.115-0.046-0.115c-0.046,0-0.115,0.092-0.115,0.092c-0.784,0.854-1.821,1.13-2.928,1.13
			c-3.597,0-3.804-3.989-3.804-4.565c0-3.136,1.521-6.271,6.225-6.271c1.406,0,3.066,0.392,3.066,0.438v9.938
			c0,1.43,0,6.778-6.456,6.778c-1.314,0-2.006-0.23-2.006-0.23V326.386z M554.779,315.296c0,0-0.323-0.139-1.153-0.139
			c-1.199,0-3.182,0.854-3.182,3.781c0,0.577,0.046,2.629,1.96,2.629c1.544,0,2.375-1.406,2.375-2.56V315.296z"/>
		<path fill="#F1F2F2" d="M563.468,323.988c-3.643,0-5.026-2.767-5.026-5.465c0-2.467,1.406-5.464,5.026-5.464
			c3.712,0,5.026,2.836,5.026,5.464C568.494,321.014,567.087,323.988,563.468,323.988z M563.468,321.913
			c1.868,0,2.421-1.937,2.421-3.39c0-1.429-0.553-3.366-2.421-3.366c-1.891,0-2.444,1.938-2.444,3.366
			C561.024,319.977,561.577,321.913,563.468,321.913z"/>
		<path fill="#F1F2F2" d="M574.598,323.596c0-9.084,8.001-7.724,8.001-12.242c0-2.052-1.637-2.375-3.62-2.375
			c-0.668,0-1.475,0.069-1.475,0.069v1.937h-2.214v-3.966c0,0,1.43-0.185,3.274-0.185c2.904,0,6.64,0.208,6.64,4.358
			c0,2.352-0.622,3.319-2.513,4.772c-2.191,1.683-5.05,2.628-5.05,5.533h7.239v2.121h-10.283V323.596z"/>
		<path fill="#F1F2F2" d="M595.297,320.553v-4.242h-4.219v-1.591h4.219v-4.22h1.613v4.22h4.221v1.591h-4.221v4.242H595.297z"/>
		<path fill="#F1F2F2" d="M608.273,324.956v-19.183h1.43v19.183H608.273z"/>
		<path fill="#F1F2F2" d="M616.43,309.163h-0.967v-2.075h3.412v6.271c0,0,0.852-0.254,1.475-0.254c0.83,0,5.373,0.115,5.373,5.326
			c0,0.991-0.369,5.533-5.834,5.533c-2.514,0-3.459-0.646-3.459-0.646V309.163z M618.875,315.388v6.226c0,0,0.529,0.207,1.105,0.207
			s3.182-0.092,3.182-3.481c0-2.997-2.512-3.112-2.996-3.112S618.875,315.388,618.875,315.388z"/>
		<path fill="#F1F2F2" d="M635.84,322.813c0,2.028-0.275,6.894-6.387,6.894c-1.359,0-2.098-0.276-2.098-0.276v-3.598h2.121v1.775
			h0.369c2.422,0,3.527-1.452,3.551-3.873c-0.322,0.023-0.646,0.046-0.945,0.046c-5.049,0-5.695-3.204-5.695-6.57v-3.735h3.666
			v2.006h-1.176c0,0-0.023,0.853-0.023,2.443c0,2.698,1.199,3.689,3.32,3.689c0.254,0,0.531-0.023,0.807-0.046
			c0.023,0,0.023-0.899,0.023-2.099c0-2.397-0.023-5.994-0.023-5.994h2.49V322.813z"/>
		<path fill="#F1F2F2" d="M651.213,320.068c0,0.484,0.186,1.384,1.131,1.384c0.576,0,1.383-0.323,1.797-1.638l0.945,1.314
			c0,0,0.07,0.115,0.07,0.208c0,0.553-1.037,2.559-3.504,2.559c-1.246,0-2.145-0.646-2.445-1.591
			c-0.023-0.069-0.023-0.092-0.045-0.092c-0.023,0-0.047,0.046-0.07,0.069c-0.645,1.13-1.959,1.775-3.342,1.775
			c-3.598,0-3.943-3.62-3.943-4.75c0-2.951,1.545-6.248,6.295-6.248c1.406,0,3.111,0.415,3.111,0.438V320.068z M648.77,315.296
			c0,0-0.322-0.139-1.152-0.139c-1.131,0-3.229,0.854-3.229,3.805c0,0.6,0.023,2.628,1.938,2.628c1.566,0,2.443-1.36,2.443-2.536
			V315.296z"/>
		<path fill="#F1F2F2" d="M656.537,323.389v6.594h-2.469V315.55h-0.945v-2.075h4.404c2.053,0,5.625,0.53,5.625,4.98
			c0,0.968-0.092,5.349-4.887,5.349C657.182,323.804,656.537,323.389,656.537,323.389z M657.229,315.526
			c-0.23,0-0.461,0-0.691,0.023v5.533c0,0,0.367,0.646,1.613,0.646c1.936,0,2.398-1.821,2.398-3.182
			C660.549,315.941,658.842,315.526,657.229,315.526z"/>
		<path fill="#F1F2F2" d="M665.109,317.763c0-0.022,0-0.069-0.023-0.069s-0.045,0-0.068,0.023c0,0-0.738,0.691-2.098,0.991
			c-0.693,0.161-1.615,0.323-2.836,0.323c-0.301,0-0.623,0-0.969-0.023v-1.982c0.299,0.022,0.6,0.022,0.875,0.022
			c1.615,0,2.676-0.23,3.436-0.6c1.568-0.783,1.707-2.974,1.707-2.974h3.389c2.168,0,5.672,0.53,5.672,4.98
			c0,0.968-0.068,5.349-4.889,5.349c-0.945,0-1.729-0.323-1.729-0.323v6.502h-2.467V317.763z M671.588,318.547
			c0-2.099-1.061-3.021-3.344-3.021c-0.23,0-0.461,0.023-0.668,0.023v5.557c0,0,0.508,0.622,1.613,0.622
			C671.127,321.729,671.588,319.953,671.588,318.547z"/>
		<path fill="#F1F2F2" d="M677.371,316.241c-0.047-0.023-0.139-0.069-0.184-0.069c0,0-0.047,0-0.094,0.069
			c0,0-1.752,2.744-5.994,2.744c-0.529,0-0.553-0.023-0.922-0.047v-1.96h1.014c4.936,0,5.766-5.118,5.766-5.118h2.236
			c0,0-0.162,1.038-0.738,2.19c0,0,2.697,1.591,2.697,4.818c0,0.923-0.461,5.026-4.889,5.026c-1.176,0-1.682-0.276-1.682-0.276
			v-2.029c0,0,0.553,0.277,1.451,0.277c1.016,0,2.652-0.6,2.652-2.929C678.686,317.071,677.717,316.402,677.371,316.241z"/>
		<path fill="#F1F2F2" d="M682.465,309.163h-0.969v-2.075h3.412v6.271c0,0,0.854-0.254,1.477-0.254c0.83,0,5.371,0.115,5.371,5.326
			c0,0.991-0.369,5.533-5.832,5.533c-2.514,0-3.459-0.646-3.459-0.646V309.163z M684.908,315.388v6.226c0,0,0.531,0.207,1.107,0.207
			s3.182-0.092,3.182-3.481c0-2.997-2.514-3.112-2.998-3.112S684.908,315.388,684.908,315.388z"/>
		<path fill="#F1F2F2" d="M692.859,318.501c0-1.384,0.715-5.441,5.256-5.441c0.346,0,3.504,0.046,3.504,3.273
			c0,0.347-0.092,3.713-4.842,3.713c-0.068,0-0.898-0.069-1.061-0.116c-0.021,0-0.045,0.023-0.045,0.047
			c0,0.092,0.254,2.028,3.365,2.028c1.822,0,3.713-0.783,4.658-2.536c0,0,0.645,0.923,0.922,1.314
			c0.068,0.092,0.092,0.139,0.092,0.185c0,0.715-1.775,3.066-5.855,3.066C693.02,324.034,692.859,319.953,692.859,318.501z
			 M697.793,315.135c-1.521,0-2.352,1.498-2.352,2.789c0,0.047,0.254,0.162,1.084,0.162c2.559,0,2.605-1.568,2.605-1.799
			C699.131,315.181,698.07,315.135,697.793,315.135z"/>
		<path fill="#F1F2F2" d="M712.338,320.322c0,0.185,0.023,1.084,0.922,1.084c0.438,0,1.061-0.254,1.338-1.43l0.945,1.291
			c0,0,0.068,0.115,0.068,0.207c0,0.484-0.898,2.444-3.229,2.444c-1.729,0-2.49-1.406-2.49-2.836v-3.988
			c0-1.36-1.197-1.545-1.521-1.545c-1.43,0-2.213,1.245-2.213,2.674v5.396h-2.467v-8.069h-1.107v-2.075h3.436v0.968
			c0,0.023,0,0.069,0.023,0.069s0.047-0.022,0.092-0.092c0,0,0.9-1.176,2.906-1.176c1.82,0,3.297,0.991,3.297,3.158V320.322z"/>
		<path fill="#F1F2F2" d="M724.807,321.406c0.439,0,1.039-0.323,1.314-1.499l0.969,1.291c0,0,0.047,0.115,0.047,0.208
			c0,0.461-0.854,2.489-3.182,2.489c-1.73,0-2.053-1.591-2.053-1.591c-0.023-0.069-0.047-0.069-0.068-0.069
			c-0.023,0-0.047,0.023-0.07,0.047c-0.645,1.13-1.867,1.706-3.25,1.706c-3.598,0-4.035-3.505-4.035-4.681
			c0-2.951,1.545-6.248,6.295-6.248c0.207,0,0.438,0.023,0.668,0.023v-3.92h-0.969v-2.075h3.412v13.165
			C723.885,320.461,723.908,321.406,724.807,321.406z M721.441,315.296c0,0-0.322-0.139-1.152-0.139
			c-1.131,0-3.229,0.854-3.229,3.805c0,0.6,0.023,2.605,1.938,2.605c1.566,0,2.443-1.338,2.443-2.514V315.296z"/>
		<path fill="#F1F2F2" d="M725.957,318.501c0-1.384,0.715-5.441,5.256-5.441c0.346,0,3.504,0.046,3.504,3.273
			c0,0.347-0.092,3.713-4.842,3.713c-0.068,0-0.898-0.069-1.061-0.116c-0.021,0-0.045,0.023-0.045,0.047
			c0,0.092,0.254,2.028,3.365,2.028c1.822,0,3.713-0.783,4.658-2.536c0,0,0.645,0.923,0.922,1.314
			c0.068,0.092,0.092,0.139,0.092,0.185c0,0.715-1.775,3.066-5.855,3.066C726.117,324.034,725.957,319.953,725.957,318.501z
			 M730.891,315.135c-1.521,0-2.352,1.498-2.352,2.789c0,0.047,0.254,0.162,1.084,0.162c2.559,0,2.605-1.568,2.605-1.799
			C732.229,315.181,731.168,315.135,730.891,315.135z"/>
		<path fill="#F1F2F2" d="M739.025,313.475v1.752c0,0,0,0.093,0.047,0.093c0.021,0,0.045-0.023,0.092-0.093s1.314-2.052,4.012-2.052
			c0.207,0,0.645,0.023,0.783,0.115v4.104h-2.074v-1.613c-0.877,0-1.498,0.553-1.914,1.13c-0.738,1.037-0.807,2.489-0.807,2.951
			v3.758h-2.467v-10.145H739.025z"/>
	</g>
	<rect x="287.542" y="289.129" fill="#FFFFFF" width="465.959" height="9.75"/>
</g>
</svg>
